# xmcd
#
# Track frame offsets: 
#        150
#        19883
#        38803
#        57593
#        76535
#        96483
#        113425
#        147790
#        160878
#        192915
#        211323
#        230700
#        246590
#        268205
#
# Disc length: 3839 seconds
#
# Revision: 101
# Processed by: cddbd v1.5.2PL0 Copyright (c) Steve Scherf et al.
# Submitted via: ExactAudioCopyFreeDBPlugin 1.0
#
DISCID=c50efd0e
DTITLE=The Smashing Pumpkins - Mellon Collie And The Infinite Sadness:
DTITLE=Twilight To Starlight
DYEAR=1995
DGENRE=Alternative Rock
TTITLE0=where boys fear to tread
TTITLE1=bodies
TTITLE2=thirty-three
TTITLE3=in the arms of sleep
TTITLE4=1979
TTITLE5=tales of a scorched earth
TTITLE6=thru the eyes of ruby
TTITLE7=stumbeleine
TTITLE8=x.y.u.
TTITLE9=we only come out at night
TTITLE10=beautiful
TTITLE11=lily (my one and only)
TTITLE12=by starlight
TTITLE13=farewell and goodnight
EXTD=Twilight To Starlight \nProduced by: Flood, Alan Moulder and Billy 
EXTD=Corgan [CDHUTD] YEAR: 1995
EXTT0=
EXTT1=
EXTT2=
EXTT3=
EXTT4=
EXTT5=
EXTT6=
EXTT7=
EXTT8=
EXTT9=
EXTT10=
EXTT11=
EXTT12=
EXTT13=
PLAYORDER=
